<?xml version="1.0" encoding="UTF-8" standalone="no"?>
<svg
   xmlns:dc="http://purl.org/dc/elements/1.1/"
   xmlns:cc="http://creativecommons.org/ns#"
   xmlns:rdf="http://www.w3.org/1999/02/22-rdf-syntax-ns#"
   xmlns:svg="http://www.w3.org/2000/svg"
   xmlns="http://www.w3.org/2000/svg"
   version="1.1"
   id="svg222"
   width="12.079854in"
   height="2.8874109in"
   viewBox="0 0 1159.666 277.19143">
  <metadata
     id="metadata228">
    <rdf:RDF>
      <cc:Work
         rdf:about="">
        <dc:format>image/svg+xml</dc:format>
        <dc:type
           rdf:resource="http://purl.org/dc/dcmitype/StillImage" />
        <dc:title></dc:title>
      </cc:Work>
    </rdf:RDF>
  </metadata>
  <defs
     id="defs226" />
  <path
     id="path1061"
     d="m 27.863091,276.97974 c -7.109333,-0.96378 -13.320666,-4.03606 -18.460824,-9.13118 -15.7718694,-15.63369 -11.0305425,-42.17476 9.204274,-51.52382 4.196948,-1.93911 7.945133,-2.74669 12.97675,-2.79596 l 4.3602,-0.0427 39.840995,-79.68256 39.840994,-79.68256 -1.11479,-1.27744 c -2.41094,-2.762698 -4.57549,-6.411997 -5.83097,-9.830659 -1.53658,-4.184109 -1.7624,-5.643847 -1.74609,-11.286784 0.0144,-4.973188 0.0903,-5.687136 0.88531,-8.32 1.61507,-5.349015 3.93145,-9.473603 7.46205,-13.287074 6.6908,-7.2268626 16.86126,-11.02742798 26.58254,-9.93354248 16.4351,1.84935758 28.56996,15.30100648 28.55714,31.65596648 -0.003,4.016675 -0.42183,6.497021 -1.78778,10.591098 l -1.1165,3.346448 31.9469,31.946905 31.9469,31.946902 3.34645,-1.11887 c 4.5524,-1.52209 7.32118,-1.90576 12.14645,-1.68316 8.40069,0.38756 15.05771,3.34284 20.96373,9.30655 4.63655,4.68184 7.43715,9.96517 8.83583,16.66878 0.51588,2.47254 0.51588,9.04746 0,11.52 -2.21954,10.63781 -8.75023,18.91376 -18.46833,23.4038 l -2.37123,1.09559 v 23.13248 23.13248 l 2.37281,1.04277 c 16.13218,7.08957 23.44304,26.4483 16.03963,42.47202 -3.0073,6.50889 -8.57866,12.18349 -15.05244,15.33136 -10.22853,4.97362 -22.23663,4.13382 -31.80011,-2.22397 -4.597,-3.05608 -9.00417,-8.33155 -11.27278,-13.49371 l -1.04277,-2.37281 h -23.12678 -23.12678 l -1.25496,2.67802 c -1.77053,3.77822 -3.59822,6.3658 -6.58705,9.32571 -6.23279,6.1725 -13.67291,9.23642 -22.42877,9.23642 -5.63044,0 -9.57215,-0.96074 -14.69657,-3.58212 -6.3597,-3.25327 -11.19377,-8.3104 -14.31925,-14.98001 l -1.25496,-2.67802 H 85.185529 62.058752 l -1.042775,2.37281 c -3.875689,8.81906 -11.873657,15.56075 -21.295952,17.95092 -3.428073,0.8696 -8.62998,1.20738 -11.856934,0.76992 z M 109.58356,232.0533 c 7.63306,-16.28852 26.64902,-23.17768 42.79621,-15.50434 6.56392,3.11926 11.99999,8.66961 15.21914,15.5391 l 1.25496,2.67803 23.10461,-0.003 23.10461,-0.003 1.25598,-2.74658 c 1.14109,-2.49533 2.96378,-5.32974 5.15437,-8.01537 l 0.82207,-1.00783 -39.81634,-79.6323 -39.81634,-79.632163 h -4.07974 -4.07974 l -39.816339,79.632163 -39.816339,79.63216 0.822067,1.00784 c 2.212323,2.71227 4.036029,5.55623 5.152214,8.03455 l 1.231015,2.73353 h 23.118169 23.118173 z m 125.15953,-47.51182 v -15.66461 l -2.67803,-1.25496 c -3.75124,-1.75789 -6.34795,-3.59009 -9.34051,-6.59051 -3.13046,-3.13868 -5.30802,-6.37218 -6.89584,-10.23972 -3.21812,-7.83855 -3.23164,-16.51285 -0.038,-24.37226 l 0.66099,-1.62667 -19.51922,-19.49333 -19.51923,-19.493333 28.5845,57.200003 c 15.72148,31.46 28.62069,57.2 28.66492,57.2 0.0442,0 0.0804,-7.04907 0.0804,-15.66461 z"
     style="fill:#661399;fill-opacity:1;stroke-width:0.31999999" />
  <path
     id="path1059"
     d="m 581.19512,28.115286 c -1.76293,0 -3.49663,1.073356 -4.28515,2.65039 a 1.8559711,1.8559711 0 0 0 -0.0137,0.02734 c -0.69946,1.457206 -0.98546,3.265724 -1.11718,5.636719 -0.10814,1.946426 -0.1413,5.476869 -0.15821,9.435547 h -7.36328 c -1.19286,0 -2.43844,0.436913 -3.27539,1.332031 -0.75652,0.775289 -1.20508,1.884381 -1.20508,2.960938 0,1.144988 0.46873,2.294892 1.24219,3.132812 0.88338,0.956998 2.20608,1.410156 3.48828,1.410156 h 7.08203 v 30.832032 c 0,2.483521 0.92733,4.862548 2.60352,6.921876 a 1.8559711,1.8559711 0 0 0 0.0156,0.0195 c 1.70215,2.03312 3.93695,3.63895 6.61328,4.818362 a 1.8559711,1.8559711 0 0 0 0.0352,0.0156 c 2.72975,1.13739 5.65213,1.70508 8.71289,1.70508 2.93427,0 5.88725,-0.35152 8.84766,-1.04688 2.93674,-0.64851 5.54351,-1.49589 7.81836,-2.566412 a 1.8559711,1.8559711 0 0 0 0.0137,-0.008 c 2.29646,-1.10407 4.01543,-2.2175 5.17969,-3.60351 a 1.8559711,1.8559711 0 0 0 0.0879,-0.11524 c 0.40267,-0.56375 0.6582,-1.295659 0.6582,-2.015626 0,-1.217771 -0.52253,-2.362033 -1.29883,-3.304688 -0.77631,-0.942668 -1.84715,-1.738284 -3.18164,-1.738281 -0.64515,0 -1.45062,0.243597 -2,0.792969 l 0.19922,-0.171876 c -1.78797,1.340975 -4.18935,2.536261 -7.21289,3.53125 -0.001,4.94e-4 -0.002,0.0015 -0.004,0.002 -2.96023,0.945875 -5.78213,1.408203 -8.48242,1.408203 -2.93019,0 -5.12011,-0.6213 -6.73633,-1.72461 -1.44403,-1.051311 -2.1582,-2.520337 -2.1582,-5.107421 V 54.701223 h 21.33203 c 1.16912,0 2.41657,-0.471479 3.20508,-1.394531 0.73227,-0.818678 1.15039,-1.931387 1.15039,-3.023437 0,-1.059829 -0.42777,-2.125424 -1.125,-2.921876 -0.75011,-0.936184 -1.99301,-1.496095 -3.16797,-1.496093 H 585.30059 V 32.783255 c 0,-1.097068 -0.13841,-2.095828 -0.70898,-3.015626 -0.72276,-1.212382 -2.15069,-1.652343 -3.39649,-1.652343 z"
     style="font-style:normal;font-weight:normal;font-size:40px;line-height:1.25;font-family:sans-serif;letter-spacing:0px;word-spacing:0px;fill:#666666;fill-opacity:1;stroke:none;stroke-width:1px;stroke-linecap:butt;stroke-linejoin:miter;stroke-opacity:1" />
  <path
     id="path1057"
     d="m 377.38262,43.427786 c -9.79028,0 -17.52051,2.65977 -22.83203,7.916015 l -0.0645,-1.695312 0.002,0.0059 c -0.0466,-1.30467 -0.22814,-2.411284 -0.78125,-3.412109 -0.64832,-1.258121 -2.14943,-1.876953 -3.44922,-1.876953 -0.60225,0 -1.21222,0.08593 -1.85547,0.234375 l -10.63086,2.113281 a 1.8559711,1.8559711 0 0 0 -0.0273,0.0059 c -0.94913,0.203387 -1.85489,0.773835 -2.44531,1.560547 -0.58365,0.743093 -0.89649,1.702994 -0.89649,2.628907 0,1.053282 0.37833,2.125876 1.05469,2.9375 a 1.8559711,1.8559711 0 0 0 0.0586,0.06641 c 0.81797,0.892337 2.05983,1.351562 3.24219,1.351562 0.41066,0 0.75016,-0.0049 1.19922,-0.117187 l -0.0762,0.01758 5.39648,-1.105469 v 35.056641 h -9.58203 c -1.20449,0 -2.46778,0.438569 -3.30469,1.351562 -0.73593,0.802851 -1.17578,1.911951 -1.17578,3.003911 0,1.14498 0.46873,2.29489 1.24219,3.132812 a 1.8559711,1.8559711 0 0 0 0.0508,0.0547 c 0.90096,0.90096 2.18342,1.29297 3.4375,1.29297 h 38.125 c 1.18236,0 2.42422,-0.45923 3.24219,-1.35157 a 1.8559711,1.8559711 0 0 0 0.0488,-0.0547 c 0.70082,-0.828262 1.12695,-1.919772 1.12695,-3.011722 0,-1.09206 -0.41812,-2.20477 -1.15039,-3.023442 -0.78851,-0.923052 -2.03596,-1.394531 -3.20508,-1.394531 H 354.98809 V 63.648489 c 1.51957,-3.619082 4.06524,-6.326419 7.91797,-8.271484 a 1.8559711,1.8559711 0 0 0 0.0137,-0.0059 c 3.50465,-1.803365 7.58445,-2.686901 12.10742,-2.914062 v 5.451172 c 0,1.388083 0.4441,2.776121 1.41797,3.75 a 1.8559711,1.8559711 0 0 0 0.0488,0.04687 c 0.89009,0.826514 2.11125,1.308594 3.32617,1.308594 1.26635,0 2.54173,-0.522189 3.4375,-1.417968 1.01867,-1.018672 1.48047,-2.468837 1.48047,-3.9375 v -8.625 c 0,-1.662401 -0.68378,-3.315566 -1.99219,-4.296876 -1.40343,-1.052578 -3.16997,-1.308593 -5.36328,-1.308593 z"
     style="font-style:normal;font-weight:normal;font-size:40px;line-height:1.25;font-family:sans-serif;letter-spacing:0px;word-spacing:0px;fill:#666666;fill-opacity:1;stroke:none;stroke-width:1px;stroke-linecap:butt;stroke-linejoin:miter;stroke-opacity:1" />
  <path
     id="path1055"
     d="M 435.63281 43.427734 C 430.13311 43.427734 425.18537 44.549784 420.88867 46.832031 C 416.59618 49.070676 413.20042 52.351121 410.82812 56.558594 C 408.44558 60.784268 407.27734 65.710499 407.27734 71.220703 C 407.27734 76.691321 408.44696 81.597089 410.82812 85.820312 C 413.20137 90.02947 416.5945 93.329135 420.88672 95.609375 C 425.18379 97.892197 430.13243 99.013672 435.63281 99.013672 C 441.1332 99.013672 446.08185 97.892197 450.37891 95.609375 C 454.67113 93.329135 458.06425 90.029469 460.4375 85.820312 C 462.81867 81.597089 463.98828 76.691321 463.98828 71.220703 C 463.98828 65.710499 462.82006 60.784268 460.4375 56.558594 C 458.06548 52.35161 454.6707 49.070658 450.37891 46.832031 C 450.37891 46.832031 450.37695 46.832031 450.37695 46.832031 C 446.08025 44.549784 441.13251 43.427734 435.63281 43.427734 z M 435.63281 52.263672 C 439.44472 52.263672 442.59966 53.087922 445.23438 54.683594 A 1.8559711 1.8559711 0 0 0 445.25977 54.699219 C 447.95846 56.273455 449.94665 58.42152 451.33984 61.283203 A 1.8559711 1.8559711 0 0 0 451.35156 61.308594 C 452.78911 64.145865 453.52734 67.421373 453.52734 71.220703 C 453.52734 75.064171 452.7883 78.384337 451.34766 81.265625 A 1.8559711 1.8559711 0 0 0 451.34375 81.275391 C 449.95258 84.095331 447.964 86.227221 445.25977 87.804688 A 1.8559711 1.8559711 0 0 0 445.25 87.810547 C 442.6137 89.37005 439.45103 90.177734 435.63281 90.177734 C 431.81634 90.177734 428.62997 89.370587 425.94727 87.806641 C 423.28714 86.231545 421.29176 84.09402 419.85742 81.267578 C 418.45785 78.386548 417.73828 75.063976 417.73828 71.220703 C 417.73828 67.419099 418.45722 64.138992 419.85547 61.300781 L 419.85742 61.298828 C 421.29505 58.424643 423.29289 56.267022 425.95312 54.693359 A 1.8559711 1.8559711 0 0 0 425.95898 54.689453 C 428.64077 53.087832 431.82091 52.263671 435.63281 52.263672 z "
     style="font-style:normal;font-weight:normal;font-size:40px;line-height:1.25;font-family:sans-serif;letter-spacing:0px;word-spacing:0px;fill:#666666;fill-opacity:1;stroke:none;stroke-width:1px;stroke-linecap:butt;stroke-linejoin:miter;stroke-opacity:1" />
  <path
     id="path1053"
     d="M 513.13281 43.427734 C 507.63311 43.427734 502.68537 44.549784 498.38867 46.832031 C 494.09618 49.070676 490.70042 52.351121 488.32812 56.558594 C 485.94558 60.784268 484.77734 65.710499 484.77734 71.220703 C 484.77734 76.691321 485.94696 81.597089 488.32812 85.820312 C 490.70137 90.02947 494.0945 93.329135 498.38672 95.609375 C 502.68379 97.892197 507.63243 99.013672 513.13281 99.013672 C 518.6332 99.013672 523.58185 97.892197 527.87891 95.609375 C 532.17113 93.329135 535.56425 90.029469 537.9375 85.820312 C 540.31867 81.597089 541.48828 76.691321 541.48828 71.220703 C 541.48828 65.710499 540.32006 60.784268 537.9375 56.558594 C 535.56548 52.35161 532.1707 49.070658 527.87891 46.832031 C 527.87891 46.832031 527.87695 46.832031 527.87695 46.832031 C 523.58025 44.549784 518.63251 43.427734 513.13281 43.427734 z M 513.13281 52.263672 C 516.94472 52.263672 520.09967 53.087922 522.73438 54.683594 A 1.8559711 1.8559711 0 0 0 522.75977 54.699219 C 525.45846 56.273455 527.44665 58.42152 528.83984 61.283203 A 1.8559711 1.8559711 0 0 0 528.85156 61.308594 C 530.28911 64.145865 531.02734 67.421373 531.02734 71.220703 C 531.02734 75.064171 530.2883 78.384337 528.84766 81.265625 A 1.8559711 1.8559711 0 0 0 528.84375 81.275391 C 527.45258 84.095331 525.464 86.227221 522.75977 87.804688 A 1.8559711 1.8559711 0 0 0 522.75 87.810547 C 520.1137 89.37005 516.95103 90.177734 513.13281 90.177734 C 509.31634 90.177734 506.12997 89.370587 503.44727 87.806641 C 500.78714 86.231545 498.79176 84.09402 497.35742 81.267578 C 495.95785 78.386548 495.23828 75.063976 495.23828 71.220703 C 495.23828 67.419099 495.95722 64.138992 497.35547 61.300781 L 497.35742 61.298828 C 498.79505 58.424643 500.79289 56.267022 503.45312 54.693359 A 1.8559711 1.8559711 0 0 0 503.45898 54.689453 C 506.14077 53.087832 509.32091 52.263671 513.13281 52.263672 z "
     style="font-style:normal;font-weight:normal;font-size:40px;line-height:1.25;font-family:sans-serif;letter-spacing:0px;word-spacing:0px;fill:#666666;fill-opacity:1;stroke:none;stroke-width:1px;stroke-linecap:butt;stroke-linejoin:miter;stroke-opacity:1" />
  <path
     id="path1051"
     d="M 745.13281 43.427734 C 740.71907 43.427734 736.74366 44.010798 733.2207 45.214844 C 729.71034 46.414586 726.85567 48.124243 724.76562 50.404297 C 722.67204 52.688221 721.52734 55.454564 721.52734 58.408203 C 721.52734 60.031502 721.92589 61.558086 722.83594 62.771484 A 1.8559711 1.8559711 0 0 0 722.87109 62.818359 C 723.87942 64.078767 725.49786 64.763672 727.13281 64.763672 C 728.19593 64.763672 729.28236 64.414988 730.11523 63.738281 C 730.9481 63.061573 731.50655 62.134974 731.87891 61.097656 C 732.47314 59.442299 732.79114 57.234888 732.98828 54.599609 C 734.73842 53.877464 736.47444 53.244021 738.16992 52.917969 A 1.8559711 1.8559711 0 0 0 738.19727 52.912109 C 740.26235 52.483508 742.55332 52.263672 745.07031 52.263672 C 749.39455 52.263672 751.93577 53.38204 753.38086 55.373047 A 1.8559711 1.8559711 0 0 0 753.39258 55.388672 C 754.913 57.437937 755.77887 60.646783 755.84961 64.992188 L 753.06836 65.181641 C 746.23841 65.642608 740.77324 66.228067 736.625 66.955078 A 1.8559711 1.8559711 0 0 0 736.62109 66.955078 C 732.36694 67.708418 728.67518 69.288211 725.6582 71.710938 C 722.44614 74.290323 720.83984 78.244799 720.83984 82.970703 C 720.83984 87.640733 722.34085 91.661769 725.33203 94.605469 A 1.8559711 1.8559711 0 0 0 725.3418 94.617188 C 728.36162 97.541139 732.56673 98.951172 737.57031 98.951172 C 742.12152 98.951172 746.3773 98.137394 750.2832 96.496094 C 753.05443 95.344002 755.28374 93.885944 757.24609 92.271484 C 757.88229 94.038644 758.70813 95.581137 760.05469 96.542969 A 1.8559711 1.8559711 0 0 0 760.08398 96.564453 C 761.88904 97.802203 764.09171 98.388672 766.50781 98.388672 C 768.644 98.388672 770.72073 97.929857 772.66406 97.029297 A 1.8559711 1.8559711 0 0 0 772.68164 97.021484 C 774.62325 96.096892 776.34943 94.833848 777.83008 93.267578 C 778.56676 92.523178 778.98828 91.439566 778.98828 90.408203 C 778.98828 89.316245 778.56215 88.224739 777.86133 87.396484 C 777.13431 86.537276 775.98143 85.927734 774.82031 85.927734 C 773.70763 85.927734 772.65753 86.510855 771.95312 87.279297 L 771.9707 87.259766 C 771.4411 87.820519 770.64221 88.423003 769.57422 89.015625 C 768.57599 89.528792 767.72925 89.740234 767.00781 89.740234 C 766.34721 89.740234 766.07737 89.601766 765.89062 89.451172 C 765.90162 89.453972 765.61328 89.030673 765.61328 87.845703 L 765.61328 68.345703 C 765.61328 63.133959 765.06784 58.750025 763.90039 55.154297 C 762.70797 51.439448 760.50381 48.445499 757.40625 46.423828 L 757.40234 46.421875 C 754.27442 44.354005 750.15387 43.427733 745.13281 43.427734 z M 755.90234 73.080078 L 755.90234 83.429688 C 753.92579 85.375598 751.47697 87.008098 748.38281 88.246094 C 748.38281 88.246094 748.38086 88.248047 748.38086 88.248047 C 745.09221 89.538406 741.73265 90.177734 738.25781 90.177734 C 735.70113 90.177734 733.87517 89.571482 732.51367 88.478516 C 731.31902 87.449809 730.61328 85.791761 730.61328 82.970703 C 730.61328 80.478215 731.33298 78.983665 732.87109 77.830078 C 734.56262 76.561433 736.96415 75.597173 740.13672 75.048828 A 1.8559711 1.8559711 0 0 0 740.1543 75.046875 C 743.47044 74.440264 748.5677 73.794985 755.375 73.130859 L 755.90234 73.080078 z "
     style="font-style:normal;font-weight:normal;font-size:40px;line-height:1.25;font-family:sans-serif;letter-spacing:0px;word-spacing:0px;fill:#666666;fill-opacity:1;stroke:none;stroke-width:1px;stroke-linecap:butt;stroke-linejoin:miter;stroke-opacity:1" />
  <path
     id="path1049"
     d="m 824.07012,43.427786 c -5.45082,0 -10.49222,1.07541 -15.04687,3.242187 -4.5702,2.174171 -8.27635,5.355086 -11,9.462891 a 1.8559711,1.8559711 0 0 0 -0.008,0.01172 c -2.70839,4.152876 -4.05078,9.047684 -4.05078,14.513672 0,5.722771 1.23351,10.805703 3.75196,15.123046 a 1.8559711,1.8559711 0 0 0 0.004,0.0078 c 2.50986,4.257803 6.10379,7.571425 10.64453,9.841795 4.53858,2.269292 9.73871,3.382822 15.51758,3.382822 3.77456,0 7.72479,-0.71088 11.8418,-2.09766 a 1.8559711,1.8559711 0 0 0 0.0117,-0.002 c 4.21322,-1.448302 7.58786,-3.467522 10.01757,-6.130866 a 1.8559711,1.8559711 0 0 0 0.008,-0.0078 c 0.97626,-1.084776 1.60148,-2.444349 1.60148,-3.867138 0,-1.169565 -0.29201,-2.374046 -1.16797,-3.25 -0.74472,-0.744719 -1.8376,-1.167969 -2.875,-1.167969 -1.4124,0 -2.80826,0.538514 -3.83398,1.503906 -2.45023,2.249799 -4.84844,3.818989 -7.17188,4.755859 -2.28807,0.922606 -5.26641,1.427735 -8.93164,1.427735 -6.24049,0 -10.95287,-1.653346 -14.48633,-4.88086 -3.43387,-3.215362 -5.2207,-7.940741 -5.2207,-14.638671 0,-3.938847 0.84652,-7.175155 2.47852,-9.845704 a 1.8559711,1.8559711 0 0 0 0.006,-0.0098 c 1.64098,-2.722552 3.96397,-4.784589 7.1289,-6.273438 l 0.004,-0.002 c 3.20335,-1.486476 7.09127,-2.263672 11.71484,-2.263672 2.13545,0 4.1556,0.197931 6.06641,0.587891 a 1.8559711,1.8559711 0 0 0 0.008,0.002 c 1.6202,0.324041 3.26049,0.970486 4.91016,1.720703 l 0.17187,1.417969 c 10e-5,8.67e-4 -1e-4,0.0011 0,0.002 l 0.002,0.01367 c 0.42121,3.702349 0.84694,6.340944 1.375,8.117187 a 1.8559711,1.8559711 0 0 0 0.004,0.01367 c 0.29576,0.967938 0.75377,1.850078 1.50195,2.523438 0.74818,0.67336 1.78532,1.039062 2.77344,1.039062 1.6691,0 3.32252,-0.806057 4.26367,-2.169922 0.93556,-1.301469 1.3418,-2.923139 1.3418,-4.685546 0,-5.820964 -2.278,-10.542637 -6.66211,-13.371094 -4.2773,-2.759547 -9.87512,-4.046875 -16.69336,-4.046875 z"
     style="font-style:normal;font-weight:normal;font-size:40px;line-height:1.25;font-family:sans-serif;letter-spacing:0px;word-spacing:0px;fill:#666666;fill-opacity:1;stroke:none;stroke-width:1px;stroke-linecap:butt;stroke-linejoin:miter;stroke-opacity:1" />
  <path
     id="path1047"
     d="m 901.57012,43.427786 c -5.45082,0 -10.49222,1.07541 -15.04687,3.242187 -4.5702,2.174171 -8.27635,5.355086 -11,9.462891 a 1.8559711,1.8559711 0 0 0 -0.008,0.01172 c -2.70839,4.152876 -4.05078,9.047684 -4.05078,14.513672 0,5.722771 1.23351,10.805703 3.75196,15.123046 a 1.8559711,1.8559711 0 0 0 0.004,0.0078 c 2.50986,4.257803 6.10379,7.571425 10.64453,9.841795 4.53858,2.269292 9.73871,3.382822 15.51758,3.382822 3.77456,0 7.72479,-0.71088 11.8418,-2.09766 a 1.8559711,1.8559711 0 0 0 0.0117,-0.002 c 4.21322,-1.448302 7.58786,-3.467522 10.01757,-6.130866 a 1.8559711,1.8559711 0 0 0 0.008,-0.0078 c 0.97626,-1.084776 1.60148,-2.444349 1.60148,-3.867138 0,-1.169565 -0.29201,-2.374046 -1.16797,-3.25 -0.74472,-0.744719 -1.8376,-1.167969 -2.875,-1.167969 -1.4124,0 -2.80826,0.538514 -3.83398,1.503906 -2.45023,2.249799 -4.84844,3.818989 -7.17188,4.755859 -2.28807,0.922606 -5.26641,1.427735 -8.93164,1.427735 -6.24049,0 -10.95287,-1.653346 -14.48633,-4.88086 -3.43387,-3.215362 -5.2207,-7.940741 -5.2207,-14.638671 0,-3.938847 0.84652,-7.175155 2.47852,-9.845704 a 1.8559711,1.8559711 0 0 0 0.006,-0.0098 c 1.64098,-2.722552 3.96397,-4.784589 7.1289,-6.273438 l 0.004,-0.002 c 3.20335,-1.486476 7.09127,-2.263672 11.71484,-2.263672 2.13545,0 4.1556,0.197931 6.06641,0.587891 a 1.8559711,1.8559711 0 0 0 0.008,0.002 c 1.6202,0.324041 3.26049,0.970486 4.91016,1.720703 l 0.17187,1.417969 c 10e-5,8.67e-4 -1e-4,0.0011 0,0.002 l 0.002,0.01367 c 0.42121,3.702349 0.84694,6.340944 1.375,8.117187 a 1.8559711,1.8559711 0 0 0 0.004,0.01367 c 0.29576,0.967938 0.75377,1.850078 1.50195,2.523438 0.74818,0.67336 1.78532,1.039062 2.77344,1.039062 1.6691,0 3.32252,-0.806057 4.26367,-2.169922 0.93556,-1.301469 1.3418,-2.923139 1.3418,-4.685546 0,-5.820964 -2.278,-10.542637 -6.66211,-13.371094 -4.2773,-2.759547 -9.87512,-4.046875 -16.69336,-4.046875 z"
     style="font-style:normal;font-weight:normal;font-size:40px;line-height:1.25;font-family:sans-serif;letter-spacing:0px;word-spacing:0px;fill:#666666;fill-opacity:1;stroke:none;stroke-width:1px;stroke-linecap:butt;stroke-linejoin:miter;stroke-opacity:1" />
  <path
     id="path1045"
     d="M 980.25586 43.427734 C 974.92483 43.428 969.98156 44.506296 965.50977 46.675781 A 1.8559711 1.8559711 0 0 0 965.50391 46.679688 C 961.05683 48.858756 957.44098 52.042334 954.76562 56.144531 A 1.8559711 1.8559711 0 0 0 954.75781 56.15625 C 952.09495 60.308508 950.77734 65.197203 950.77734 70.658203 C 950.77734 76.385695 952.03542 81.47434 954.59961 85.792969 A 1.8559711 1.8559711 0 0 0 954.60352 85.800781 C 957.15441 90.052252 960.76415 93.361569 965.30273 95.630859 A 1.8559711 1.8559711 0 0 0 965.30859 95.632812 C 969.88705 97.899815 975.12655 99.013672 980.94531 99.013672 C 984.72714 99.013672 988.71982 98.281746 992.91797 96.853516 L 992.91211 96.853516 C 997.20224 95.408874 1000.6162 93.422993 1003.0547 90.796875 A 1.8559711 1.8559711 0 0 0 1003.0742 90.775391 C 1004.0506 89.690566 1004.6758 88.330992 1004.6758 86.908203 C 1004.6758 85.780282 1004.2802 84.635658 1003.5488 83.771484 C 1002.7681 82.848692 1001.5171 82.302734 1000.3203 82.302734 C 998.96118 82.302734 997.68878 82.887728 996.58984 83.777344 A 1.8559711 1.8559711 0 0 0 996.48242 83.873047 C 994.28155 85.958085 991.79537 87.52593 988.98047 88.607422 C 986.17883 89.658039 983.34762 90.177734 980.44531 90.177734 C 974.35802 90.177734 969.67855 88.596474 966.0957 85.503906 C 962.95777 82.795372 961.19599 78.935686 960.69141 73.748047 L 997.94531 73.451172 C 999.82782 73.451172 1001.6304 72.702862 1002.8418 71.318359 A 1.8559711 1.8559711 0 0 0 1002.8652 71.289062 C 1004.0381 69.892816 1004.6113 68.083391 1004.6113 66.158203 C 1004.6113 61.431494 1003.5607 57.264761 1001.3945 53.804688 C 999.29667 50.38801 996.32129 47.767102 992.61133 46.044922 C 988.95981 44.289059 984.81776 43.427983 980.25781 43.427734 L 980.25586 43.427734 z M 980.38281 52.263672 C 986.56955 52.263672 990.22529 53.789804 992.04688 56.40625 C 993.78224 58.898861 994.74403 61.871595 995.22656 65.191406 L 961.12891 65.412109 C 962.05639 61.557062 963.86058 58.559881 966.71094 56.308594 L 966.7168 56.304688 C 966.7168 56.304688 966.71875 56.302734 966.71875 56.302734 C 970.12997 53.644368 974.6046 52.263672 980.38281 52.263672 z "
     style="font-style:normal;font-weight:normal;font-size:40px;line-height:1.25;font-family:sans-serif;letter-spacing:0px;word-spacing:0px;fill:#666666;fill-opacity:1;stroke:none;stroke-width:1px;stroke-linecap:butt;stroke-linejoin:miter;stroke-opacity:1" />
  <path
     id="path1043"
     d="m 1054.9451,43.427786 c -5.9431,0 -11.0674,1.13022 -15.2812,3.486328 a 1.8559711,1.8559711 0 0 0 -0.01,0.0039 c -4.379,2.475084 -6.6914,6.965037 -6.6914,12.552735 0,3.905056 1.3766,7.295816 4.0722,9.648437 2.6201,2.286603 6.1757,3.777813 10.5625,4.611328 h -0.01 l 16.625,3.25 a 1.8559711,1.8559711 0 0 0 0.014,0.002 c 2.4195,0.453648 3.8787,1.254665 4.6114,2.123047 a 1.8559711,1.8559711 0 0 0 0.017,0.02148 c 0.794,0.911588 1.2325,2.10874 1.2325,3.90625 0,2.520788 -0.8309,3.989186 -2.8926,5.208984 -5e-4,2.59e-4 0,-2.59e-4 0,0 -2.0582,1.200121 -5.3784,1.935547 -9.9375,1.935547 -3.3523,0 -6.3541,-0.511798 -9.041,-1.509766 -2.6877,-0.998326 -4.7152,-2.335719 -6.1894,-3.986328 -1.4161,-1.632114 -2.0391,-3.260668 -2.0391,-5.148437 0,-1.509567 -0.066,-2.788473 -1.1465,-3.896485 -0.764,-0.820445 -1.9039,-1.208984 -2.959,-1.208984 -1.1577,0 -2.2694,0.630841 -2.9785,1.46875 -0.8523,1.007338 -1.1269,2.291633 -1.1269,3.636719 l -0.125,14.109376 a 1.8559711,1.8559711 0 0 0 0,0.0156 c 0,1.14498 0.5005,2.33707 1.3515,3.117182 0.8029,0.736 1.912,1.17579 3.0039,1.17579 1.0374,0 2.1302,-0.42308 2.875,-1.16797 0.801,-0.800862 1.1249,-1.908282 1.1817,-3.007822 1.8218,1.39891 3.7829,2.602622 6.0176,3.384772 a 1.8559711,1.8559711 0 0 0 0.01,0.002 c 3.5845,1.23909 7.4421,1.85157 11.5429,1.85157 6.4409,0 11.7418,-1.20103 15.8086,-3.789072 a 1.8559711,1.8559711 0 0 0 0,-0.004 c 4.1733,-2.67273 6.418,-6.966796 6.418,-12.125006 0,-4.607006 -1.2231,-8.386417 -3.8906,-10.90625 -2.497,-2.397213 -5.9553,-3.951284 -10.2324,-4.789063 h 0.01 l -16.1446,-3.240234 c 0,-9.2e-4 -0.01,-0.003 -0.01,-0.0039 -2.7659,-0.624735 -4.5191,-1.505786 -5.2598,-2.240234 -0.8171,-0.852622 -1.2207,-1.851 -1.2207,-3.382812 0,-2.203937 0.6894,-3.445764 2.4277,-4.511719 1.7384,-1.065956 4.7398,-1.757813 8.9668,-1.757813 4.3658,0 7.9594,0.62644 10.791,1.796875 a 1.8559711,1.8559711 0 0 0 0.01,0.0039 c 2.7785,1.13335 4.4285,2.696219 5.3593,4.783203 0.058,1.666468 0.1403,3.061314 0.5371,4.138671 a 1.8559711,1.8559711 0 0 0 0,0.002 c 0.2698,0.732068 0.8156,1.429222 1.5137,1.84375 0.6982,0.414527 1.4726,0.55664 2.2285,0.55664 1.1118,0 2.2641,-0.244532 3.125,-1.105468 0.7881,-0.788075 1.1103,-1.819506 1.2207,-2.869141 a 1.8559711,1.8559711 0 0 0 0.01,-0.175781 l 0.125,-12.5625 a 1.8559711,1.8559711 0 0 0 0,-0.01758 c 0,-1.28108 -0.3722,-2.565333 -1.2422,-3.507813 -0.7962,-0.862548 -1.9944,-1.410158 -3.1758,-1.410156 -1.205,0 -2.3876,0.581671 -3.2031,1.445312 -0.561,0.570344 -0.8723,1.300136 -1.0625,2.072266 -1.3262,-0.789616 -2.8923,-1.461848 -4.7109,-2.046875 0,-4.02e-4 0,4.01e-4 0,0 -3.563,-1.187229 -7.2664,-1.783203 -11.0821,-1.783203 z"
     style="font-style:normal;font-weight:normal;font-size:40px;line-height:1.25;font-family:sans-serif;letter-spacing:0px;word-spacing:0px;fill:#666666;fill-opacity:1;stroke:none;stroke-width:1px;stroke-linecap:butt;stroke-linejoin:miter;stroke-opacity:1" />
  <path
     id="path1041"
     d="m 1132.4451,43.427786 c -5.9431,0 -11.0674,1.13022 -15.2812,3.486328 a 1.8559711,1.8559711 0 0 0 -0.01,0.0039 c -4.379,2.475084 -6.6914,6.965037 -6.6914,12.552735 0,3.905056 1.3766,7.295816 4.0722,9.648437 2.6201,2.286603 6.1757,3.777813 10.5625,4.611328 h -0.01 l 16.625,3.25 a 1.8559711,1.8559711 0 0 0 0.014,0.002 c 2.4195,0.453648 3.8787,1.254665 4.6114,2.123047 a 1.8559711,1.8559711 0 0 0 0.017,0.02148 c 0.794,0.911588 1.2325,2.10874 1.2325,3.90625 0,2.520788 -0.8309,3.989186 -2.8926,5.208984 -5e-4,2.59e-4 0,-2.59e-4 0,0 -2.0582,1.200121 -5.3784,1.935547 -9.9375,1.935547 -3.3523,0 -6.3541,-0.511798 -9.041,-1.509766 -2.6877,-0.998326 -4.7152,-2.335719 -6.1894,-3.986328 -1.4161,-1.632114 -2.0391,-3.260668 -2.0391,-5.148437 0,-1.509567 -0.066,-2.788473 -1.1465,-3.896485 -0.764,-0.820445 -1.9039,-1.208984 -2.959,-1.208984 -1.1577,0 -2.2694,0.630841 -2.9785,1.46875 -0.8523,1.007338 -1.1269,2.291633 -1.1269,3.636719 l -0.125,14.109376 a 1.8559711,1.8559711 0 0 0 0,0.0156 c 0,1.14498 0.5005,2.33707 1.3515,3.117182 0.8029,0.736 1.912,1.17579 3.0039,1.17579 1.0374,0 2.1302,-0.42308 2.875,-1.16797 0.801,-0.800862 1.1249,-1.908282 1.1817,-3.007822 1.8218,1.39891 3.7829,2.602622 6.0176,3.384772 a 1.8559711,1.8559711 0 0 0 0.01,0.002 c 3.5845,1.23909 7.4421,1.85157 11.5429,1.85157 6.4409,0 11.7418,-1.20103 15.8086,-3.789072 a 1.8559711,1.8559711 0 0 0 0,-0.004 c 4.1733,-2.67273 6.418,-6.966796 6.418,-12.125006 0,-4.607006 -1.2231,-8.386417 -3.8906,-10.90625 -2.497,-2.397213 -5.9553,-3.951284 -10.2324,-4.789063 h 0.01 l -16.1446,-3.240234 c 0,-9.2e-4 -0.01,-0.003 -0.01,-0.0039 -2.7659,-0.624735 -4.5191,-1.505786 -5.2598,-2.240234 -0.8171,-0.852622 -1.2207,-1.851 -1.2207,-3.382812 0,-2.203937 0.6894,-3.445764 2.4277,-4.511719 1.7384,-1.065956 4.7398,-1.757813 8.9668,-1.757813 4.3658,0 7.9594,0.62644 10.791,1.796875 a 1.8559711,1.8559711 0 0 0 0.01,0.0039 c 2.7785,1.13335 4.4285,2.696219 5.3593,4.783203 0.058,1.666468 0.1403,3.061314 0.5371,4.138671 a 1.8559711,1.8559711 0 0 0 0,0.002 c 0.2698,0.732068 0.8156,1.429222 1.5137,1.84375 0.6982,0.414527 1.4726,0.55664 2.2285,0.55664 1.1118,0 2.2641,-0.244532 3.125,-1.105468 0.7881,-0.788075 1.1103,-1.819506 1.2207,-2.869141 a 1.8559711,1.8559711 0 0 0 0.01,-0.175781 l 0.125,-12.5625 a 1.8559711,1.8559711 0 0 0 0,-0.01758 c 0,-1.28108 -0.3722,-2.565333 -1.2422,-3.507813 -0.7962,-0.862548 -1.9944,-1.410158 -3.1758,-1.410156 -1.205,0 -2.3876,0.581671 -3.2031,1.445312 -0.561,0.570344 -0.8723,1.300136 -1.0625,2.072266 -1.3262,-0.789616 -2.8923,-1.461848 -4.7109,-2.046875 0,-4.02e-4 0,4.01e-4 0,0 -3.563,-1.187229 -7.2664,-1.783203 -11.0821,-1.783203 z"
     style="font-style:normal;font-weight:normal;font-size:40px;line-height:1.25;font-family:sans-serif;letter-spacing:0px;word-spacing:0px;fill:#666666;fill-opacity:1;stroke:none;stroke-width:1px;stroke-linecap:butt;stroke-linejoin:miter;stroke-opacity:1" />
  <path
     id="path1031"
     d="m 578.63262,148.36529 c -1.10631,0.0914 0.3921,-0.0904 -1.07812,0.0918 l -14.625,2.625 0.0976,-0.0156 c -1.06666,0.13333 -2.15097,0.74127 -2.77929,1.6543 -0.55708,0.77852 -0.84571,1.74293 -0.84571,2.6875 0,1.1086 0.41098,2.22805 1.12696,3.07422 a 1.8559711,1.8559711 0 0 0 0.0488,0.0547 c 0.81797,0.89234 2.05983,1.35157 3.24219,1.35157 0.32137,0 0.66382,-0.0383 1.02344,-0.15821 l -0.32617,0.0781 8.50976,-1.20117 v 58.50781 h -8.89453 c -1.20449,0 -2.46778,0.43857 -3.30469,1.35156 -0.73593,0.80285 -1.17578,1.91195 -1.17578,3.00391 0,1.14498 0.46873,2.29489 1.24219,3.13281 a 1.8559711,1.8559711 0 0 0 0.10547,0.10547 c 0.90762,0.8378 2.15433,1.24219 3.38281,1.24219 h 20.875 c 1.16912,0 2.41657,-0.47148 3.20508,-1.39453 0.73227,-0.81869 1.15039,-1.93139 1.15039,-3.02344 0,-1.05983 -0.42778,-2.12543 -1.125,-2.92188 -0.75012,-0.93619 -1.99302,-1.49609 -3.16797,-1.49609 h -2.58196 v -11.32619 l 5.79102,-4.22852 14.625,15.55469 h -2.58399 c -1.25408,0 -2.53654,0.39201 -3.4375,1.29297 -0.80983,0.80983 -1.29297,1.98001 -1.29297,3.125 0,1.09195 0.42613,2.18346 1.12696,3.01172 a 1.8559711,1.8559711 0 0 0 0.0488,0.0547 c 0.83691,0.913 2.1002,1.35157 3.30469,1.35157 h 19.5625 c 1.16912,0 2.41657,-0.47148 3.20508,-1.39453 0.73227,-0.81869 1.15039,-1.93139 1.15039,-3.02344 0,-1.05983 -0.42778,-2.12543 -1.125,-2.92188 -0.76821,-0.95831 -2.03734,-1.49609 -3.23047,-1.49609 h -4.63281 l -19.36914,-20.67578 17.69922,-13.73828 h 4.92773 c 1.09196,0 2.20106,-0.43985 3.00391,-1.17579 a 1.8559711,1.8559711 0 0 0 0.0586,-0.0547 c 0.75516,-0.75516 1.29297,-1.82395 1.29297,-2.9375 0,-1.15569 -0.36359,-2.32009 -1.10156,-3.21485 -0.78408,-0.99642 -2.09285,-1.51562 -3.31641,-1.51562 h -19.8125 c -1.27187,0 -2.57962,0.45134 -3.46289,1.39258 -0.79084,0.80847 -1.26758,1.95783 -1.26758,3.08789 0,1.1086 0.42249,2.24462 1.17578,3.0664 0.83691,0.913 2.1002,1.35157 3.30469,1.35157 h 0.95703 l -16.60155,12.70117 v -43.18164 c 0,-1.02145 -0.4577,-2.15522 -1.29102,-2.84571 -0.77808,-0.67657 -1.81945,-1.00976 -2.81445,-1.00976 z"
     style="font-style:normal;font-weight:normal;font-size:40px;line-height:1.25;font-family:sans-serif;letter-spacing:0px;word-spacing:0px;fill:#333333;fill-opacity:1;stroke:none;stroke-width:1px;stroke-linecap:butt;stroke-linejoin:miter;stroke-opacity:1" />
  <path
     id="path1029"
     d="m 341.57012,148.49029 c -0.47591,0 -0.79489,0.053 -1.48047,0.13867 l -11.76758,1.18359 0.0703,-0.006 c -1.14475,0.0715 -2.31739,0.7234 -2.97266,1.66992 a 1.8559711,1.8559711 0 0 0 -0.0547,0.084 c -0.48917,0.7949 -0.77539,1.72333 -0.77539,2.66016 0,1.09195 0.45404,2.22355 1.23047,3 a 1.8559711,1.8559711 0 0 0 0.0645,0.0605 c 0.83322,0.75747 2.01368,1.1073 3.10743,1.04297 a 1.8559711,1.8559711 0 0 0 0.004,-0.002 l 7.28125,-0.44336 v 59.23633 h -4.89453 c -1.19286,0 -2.43844,0.43691 -3.27539,1.33203 -0.75652,0.77529 -1.20508,1.88438 -1.20508,2.96094 0,1.14498 0.46873,2.29489 1.24219,3.13281 0.88338,0.95698 2.20607,1.41016 3.48828,1.41016 h 18.9375 c 1.28108,0 2.56533,-0.37221 3.50781,-1.24219 a 1.8559711,1.8559711 0 0 0 0.006,-0.004 c 0.8789,-0.81613 1.4668,-2.0166 1.4668,-3.23437 0,-1.15616 -0.55865,-2.30341 -1.38672,-3.08203 -0.91754,-0.89978 -2.20013,-1.27344 -3.46875,-1.27344 h -4.70729 v -24.08203 c 0,-1.72981 0.6577,-3.57798 2.19531,-5.64063 1.50564,-2.01976 3.61737,-3.70749 6.43946,-5.06054 a 1.8559711,1.8559711 0 0 0 0.01,-0.006 c 2.81423,-1.36909 5.95305,-2.0625 9.5,-2.0625 3.36081,0 5.52806,0.88056 6.99609,2.51171 a 1.8559711,1.8559711 0 0 0 0.0137,0.0137 c 1.53686,1.67049 2.38476,4.07766 2.38476,7.55664 v 26.76953 h -7.26953 c -1.19286,0 -2.43844,0.43691 -3.27539,1.33203 -0.75652,0.77529 -1.20508,1.88438 -1.20508,2.96094 0,1.14498 0.46873,2.29489 1.24219,3.13281 0.88338,0.95698 2.20607,1.41016 3.48828,1.41016 h 21.5625 c 1.20449,0 2.46778,-0.43857 3.30469,-1.35157 a 1.8559711,1.8559711 0 0 0 0.0488,-0.0547 c 0.71598,-0.84617 1.12695,-1.96562 1.12695,-3.07422 0,-1.075 -0.43304,-2.16127 -1.14844,-2.96094 -0.78845,-0.92387 -2.03739,-1.39453 -3.20703,-1.39453 h -4.95726 v -26.33203 c 0,-5.90649 -1.58135,-10.77156 -4.89062,-14.22266 -3.3475,-3.49095 -8.33208,-5.13281 -14.52735,-5.13281 -3.00402,0 -5.95381,0.51883 -8.81445,1.54687 a 1.8559711,1.8559711 0 0 0 -0.01,0.002 c -2.8006,1.02244 -5.30225,2.43863 -7.4707,4.24218 -0.002,0.002 -0.004,0.004 -0.006,0.006 -0.57378,0.46655 -1.02425,1.0015 -1.53125,1.50586 v -25.94726 c 0,-1.13766 -0.34207,-2.33982 -1.2168,-3.17188 -0.87473,-0.83206 -2.05279,-1.12109 -3.20117,-1.12109 z"
     style="font-style:normal;font-weight:normal;font-size:40px;line-height:1.25;font-family:sans-serif;letter-spacing:0px;word-spacing:0px;fill:#333333;fill-opacity:1;stroke:none;stroke-width:1px;stroke-linecap:butt;stroke-linejoin:miter;stroke-opacity:1" />
  <path
     id="path1027"
     d="M 435.13281 171.42773 C 430.71907 171.42773 426.74366 172.01079 423.2207 173.21484 C 419.71034 174.41458 416.85567 176.12425 414.76562 178.4043 C 412.67203 180.68822 411.52734 183.45456 411.52734 186.4082 C 411.52734 188.03149 411.92589 189.55808 412.83594 190.77148 A 1.8559711 1.8559711 0 0 0 412.87109 190.81836 C 413.87942 192.07877 415.49786 192.76367 417.13281 192.76367 C 418.19593 192.76367 419.28236 192.41498 420.11523 191.73828 C 420.9481 191.06157 421.50655 190.13498 421.87891 189.09766 C 422.47314 187.4423 422.79114 185.23489 422.98828 182.59961 C 424.73842 181.87747 426.47445 181.24402 428.16992 180.91797 A 1.8559711 1.8559711 0 0 0 428.19727 180.91211 C 430.26234 180.48351 432.55332 180.26367 435.07031 180.26367 C 439.39455 180.26367 441.93577 181.38204 443.38086 183.37305 A 1.8559711 1.8559711 0 0 0 443.39258 183.38867 C 444.913 185.43793 445.77887 188.64679 445.84961 192.99219 L 443.06836 193.18164 C 436.23841 193.6426 430.77324 194.22806 426.625 194.95508 A 1.8559711 1.8559711 0 0 0 426.62109 194.95508 C 422.36694 195.70842 418.67518 197.28821 415.6582 199.71094 C 412.44614 202.29032 410.83984 206.24479 410.83984 210.9707 C 410.83984 215.64072 412.34085 219.66176 415.33203 222.60547 A 1.8559711 1.8559711 0 0 0 415.3418 222.61719 C 418.36162 225.54114 422.56673 226.95117 427.57031 226.95117 C 432.12152 226.95117 436.3773 226.13739 440.2832 224.49609 C 443.05443 223.344 445.28374 221.88594 447.24609 220.27148 C 447.88229 222.03864 448.70813 223.58114 450.05469 224.54297 A 1.8559711 1.8559711 0 0 0 450.08398 224.56445 C 451.88904 225.8022 454.09171 226.38867 456.50781 226.38867 C 458.644 226.38867 460.72073 225.92986 462.66406 225.0293 A 1.8559711 1.8559711 0 0 0 462.68164 225.02148 C 464.62325 224.09689 466.34943 222.83385 467.83008 221.26758 C 468.56676 220.52318 468.98828 219.43956 468.98828 218.4082 C 468.98828 217.31624 468.56216 216.22474 467.86133 215.39648 C 467.13431 214.53726 465.98142 213.92773 464.82031 213.92773 C 463.70763 213.92773 462.65753 214.51086 461.95312 215.2793 L 461.9707 215.25977 C 461.44111 215.82052 460.64221 216.42299 459.57422 217.01562 C 458.57599 217.52878 457.72925 217.74023 457.00781 217.74023 C 456.34721 217.74023 456.07737 217.60176 455.89062 217.45117 C 455.90163 217.45417 455.61328 217.03066 455.61328 215.8457 L 455.61328 196.3457 C 455.61328 191.13395 455.06784 186.75003 453.90039 183.1543 C 452.70797 179.43945 450.50381 176.4455 447.40625 174.42383 L 447.40234 174.42188 C 444.27442 172.35399 440.15387 171.42773 435.13281 171.42773 z M 445.90234 201.08008 L 445.90234 211.42969 C 443.92579 213.3756 441.47697 215.00809 438.38281 216.24609 C 438.38281 216.24609 438.38086 216.24805 438.38086 216.24805 C 435.09221 217.53841 431.73265 218.17773 428.25781 218.17773 C 425.70113 218.17773 423.87517 217.57148 422.51367 216.47852 C 421.31902 215.44981 420.61328 213.79175 420.61328 210.9707 C 420.61328 208.47821 421.33298 206.98367 422.87109 205.83008 C 424.56262 204.56144 426.96415 203.59717 430.13672 203.04883 A 1.8559711 1.8559711 0 0 0 430.1543 203.04688 C 433.47044 202.44027 438.5677 201.79498 445.375 201.13086 L 445.90234 201.08008 z "
     style="font-style:normal;font-weight:normal;font-size:40px;line-height:1.25;font-family:sans-serif;letter-spacing:0px;word-spacing:0px;fill:#333333;fill-opacity:1;stroke:none;stroke-width:1px;stroke-linecap:butt;stroke-linejoin:miter;stroke-opacity:1" />
  <path
     id="path1025"
     d="m 514.07012,171.42779 c -5.45082,0 -10.49222,1.07541 -15.04687,3.24219 -4.57021,2.17416 -8.27635,5.35508 -11,9.46289 a 1.8559711,1.8559711 0 0 0 -0.008,0.0117 c -2.70839,4.15287 -4.05078,9.04768 -4.05078,14.51367 0,5.72277 1.23351,10.8057 3.75196,15.12304 a 1.8559711,1.8559711 0 0 0 0.004,0.008 c 2.50986,4.2578 6.10379,7.57142 10.64453,9.84179 4.53858,2.26929 9.73871,3.38282 15.51758,3.38282 3.77456,0 7.72479,-0.71088 11.8418,-2.09766 a 1.8559711,1.8559711 0 0 0 0.0117,-0.002 c 4.21322,-1.4483 7.58786,-3.46753 10.01757,-6.13086 a 1.8559711,1.8559711 0 0 0 0.008,-0.008 c 0.97634,-1.08482 1.60156,-2.4444 1.60156,-3.86718 0,-1.16957 -0.29199,-2.37404 -1.16797,-3.25 -0.74473,-0.74473 -1.83761,-1.16797 -2.875,-1.16797 -1.41239,0 -2.80826,0.53851 -3.83398,1.50391 -2.45023,2.24979 -4.84844,3.81898 -7.17188,4.75585 -2.28807,0.92261 -5.26641,1.42774 -8.93164,1.42774 -6.24049,0 -10.95287,-1.65335 -14.48633,-4.88086 -3.43387,-3.21536 -5.2207,-7.94075 -5.2207,-14.63867 0,-3.93885 0.84652,-7.17516 2.47852,-9.84571 a 1.8559711,1.8559711 0 0 0 0.006,-0.01 c 1.64098,-2.72256 3.96397,-4.78459 7.1289,-6.27344 l 0.004,-0.002 c 3.20335,-1.48648 7.09127,-2.26367 11.71484,-2.26367 2.13545,0 4.15561,0.19792 6.06641,0.58789 a 1.8559711,1.8559711 0 0 0 0.008,0.002 c 1.6202,0.32404 3.26049,0.97048 4.91016,1.7207 l 0.17187,1.41797 c 1e-4,8.7e-4 -10e-5,0.001 0,0.002 l 0.002,0.0137 c 0.42121,3.70234 0.84694,6.34094 1.375,8.11718 a 1.8559711,1.8559711 0 0 0 0.004,0.0137 c 0.29576,0.96793 0.75377,1.85007 1.50195,2.52343 0.74818,0.67336 1.78532,1.03907 2.77344,1.03907 1.66911,0 3.32252,-0.80607 4.26367,-2.16993 0.93555,-1.30146 1.3418,-2.92314 1.3418,-4.68554 0,-5.82097 -2.278,-10.54264 -6.66211,-13.3711 -4.2773,-2.75954 -9.87512,-4.04687 -16.69336,-4.04687 z"
     style="font-style:normal;font-weight:normal;font-size:40px;line-height:1.25;font-family:sans-serif;letter-spacing:0px;word-spacing:0px;fill:#333333;fill-opacity:1;stroke:none;stroke-width:1px;stroke-linecap:butt;stroke-linejoin:miter;stroke-opacity:1" />
  <path
     id="path1023"
     d="M 670.25781 171.42773 C 664.92603 171.42773 659.98212 172.50602 655.50977 174.67578 A 1.8559711 1.8559711 0 0 0 655.50391 174.67969 C 651.05683 176.85875 647.44097 180.04232 644.76562 184.14453 A 1.8559711 1.8559711 0 0 0 644.75781 184.15625 C 642.09495 188.30851 640.77734 193.1972 640.77734 198.6582 C 640.77734 204.38569 642.03542 209.47434 644.59961 213.79297 A 1.8559711 1.8559711 0 0 0 644.60352 213.80078 C 647.15441 218.05224 650.76415 221.36157 655.30273 223.63086 A 1.8559711 1.8559711 0 0 0 655.30859 223.63281 C 659.88705 225.89981 665.12655 227.01367 670.94531 227.01367 C 674.72714 227.01367 678.71982 226.28175 682.91797 224.85352 L 682.91211 224.85352 C 687.20224 223.40888 690.61615 221.42299 693.05469 218.79688 A 1.8559711 1.8559711 0 0 0 693.07422 218.77539 C 694.05056 217.69057 694.67578 216.33098 694.67578 214.9082 C 694.67578 213.78016 694.27998 212.63556 693.54883 211.77148 C 692.76807 210.84876 691.51707 210.30273 690.32031 210.30273 C 688.96118 210.30273 687.68878 210.88771 686.58984 211.77734 A 1.8559711 1.8559711 0 0 0 686.48242 211.87305 C 684.28155 213.95809 681.79537 215.52592 678.98047 216.60742 C 676.17883 217.65803 673.34762 218.17773 670.44531 218.17773 C 664.35802 218.17773 659.67855 216.59647 656.0957 213.50391 C 652.95777 210.79537 651.19599 206.93569 650.69141 201.74805 L 687.94531 201.45117 C 689.82782 201.45117 691.63034 200.70288 692.8418 199.31836 A 1.8559711 1.8559711 0 0 0 692.86719 199.28906 C 694.04003 197.89281 694.61328 196.08338 694.61328 194.1582 C 694.61328 189.43146 693.56258 185.26474 691.39648 181.80469 C 689.29866 178.38801 686.32324 175.76709 682.61328 174.04492 C 678.96124 172.2888 674.81854 171.42773 670.25781 171.42773 z M 670.38281 180.26367 C 676.56955 180.26367 680.2253 181.78981 682.04688 184.40625 C 683.78224 186.89886 684.74403 189.8716 685.22656 193.19141 L 651.12891 193.41211 C 652.05639 189.55706 653.86058 186.55987 656.71094 184.30859 L 656.7168 184.30469 C 656.7168 184.30469 656.71875 184.30273 656.71875 184.30273 C 660.12997 181.64436 664.6046 180.26367 670.38281 180.26367 z "
     style="font-style:normal;font-weight:normal;font-size:40px;line-height:1.25;font-family:sans-serif;letter-spacing:0px;word-spacing:0px;fill:#333333;fill-opacity:1;stroke:none;stroke-width:1px;stroke-linecap:butt;stroke-linejoin:miter;stroke-opacity:1" />
  <path
     id="path1021"
     d="m 764.88262,171.42779 c -9.79028,0 -17.52051,2.65977 -22.83203,7.91601 l -0.0644,-1.69531 0.002,0.006 c -0.0466,-1.30467 -0.22813,-2.41128 -0.78125,-3.41211 -0.64832,-1.25813 -2.14944,-1.87695 -3.44922,-1.87695 -0.60225,0 -1.21222,0.0859 -1.85547,0.23437 l -10.63086,2.11328 a 1.8559711,1.8559711 0 0 0 -0.0273,0.006 c -0.94912,0.20339 -1.85488,0.77382 -2.44531,1.56055 -0.58366,0.7431 -0.89649,1.70299 -0.89649,2.62891 0,1.05328 0.37833,2.12587 1.05469,2.9375 a 1.8559711,1.8559711 0 0 0 0.0586,0.0664 c 0.81797,0.89234 2.05983,1.35157 3.24219,1.35157 0.41068,0 0.75026,-0.005 1.19922,-0.11719 l -0.0762,0.0176 5.39648,-1.10547 v 35.05664 h -9.58203 c -1.20449,0 -2.46778,0.43857 -3.30469,1.35156 -0.73593,0.80285 -1.17578,1.91195 -1.17578,3.00391 0,1.14498 0.46873,2.29489 1.24219,3.13281 a 1.8559711,1.8559711 0 0 0 0.0508,0.0547 c 0.90096,0.90096 2.18342,1.29297 3.4375,1.29297 h 38.125 c 1.18236,0 2.42422,-0.45923 3.24219,-1.35157 a 1.8559711,1.8559711 0 0 0 0.0488,-0.0547 c 0.70082,-0.82826 1.12695,-1.91977 1.12695,-3.01172 0,-1.09206 -0.41812,-2.20477 -1.15039,-3.02344 -0.78851,-0.92305 -2.03596,-1.39453 -3.20508,-1.39453 h -19.14464 v -25.4668 c 1.51957,-3.61908 4.06524,-6.32642 7.91797,-8.27148 a 1.8559711,1.8559711 0 0 0 0.0137,-0.006 c 3.50465,-1.80337 7.58445,-2.6869 12.10742,-2.91406 v 5.45117 c 0,1.38808 0.44411,2.77612 1.41797,3.75 a 1.8559711,1.8559711 0 0 0 0.0488,0.0469 c 0.89008,0.8265 2.11124,1.3086 3.32617,1.3086 1.26635,0 2.54173,-0.5222 3.4375,-1.41797 1.01867,-1.01867 1.48047,-2.46884 1.48047,-3.9375 v -8.625 c 0,-1.6624 -0.68378,-3.31557 -1.99219,-4.29688 -1.40343,-1.05258 -3.16997,-1.30859 -5.36328,-1.30859 z"
     style="font-style:normal;font-weight:normal;font-size:40px;line-height:1.25;font-family:sans-serif;letter-spacing:0px;word-spacing:0px;fill:#333333;fill-opacity:1;stroke:none;stroke-width:1px;stroke-linecap:butt;stroke-linejoin:miter;stroke-opacity:1" />
  <path
     id="path1019"
     d="m 822.44512,171.42779 c -5.94312,0 -11.06744,1.13022 -15.28125,3.48633 a 1.8559711,1.8559711 0 0 0 -0.008,0.004 c -4.379,2.47508 -6.69141,6.96505 -6.69141,12.55274 0,3.90503 1.37654,7.2958 4.07227,9.64844 2.62007,2.2866 6.17558,3.77781 10.5625,4.61132 h -0.01 l 16.625,3.25 a 1.8559711,1.8559711 0 0 0 0.0137,0.002 c 2.41946,0.45364 3.87865,1.25467 4.61133,2.12304 a 1.8559711,1.8559711 0 0 0 0.0195,0.0215 c 0.79396,0.91158 1.23047,2.10874 1.23047,3.90625 0,2.52077 -0.83092,3.98919 -2.89258,5.20898 -4.4e-4,2.6e-4 -10e-4,-2.6e-4 -0.002,0 -2.05824,1.20012 -5.3784,1.93555 -9.9375,1.93555 -3.35245,0 -6.35417,-0.5118 -9.04101,-1.50977 -2.68781,-0.99833 -4.71528,-2.33575 -6.18946,-3.98632 -1.41612,-1.6321 -2.03906,-3.26064 -2.03906,-5.14844 0,-1.5096 -0.0658,-2.7885 -1.14648,-3.89649 -0.76408,-0.82053 -1.90396,-1.20898 -2.95899,-1.20898 -1.15773,0 -2.26941,0.6307 -2.97851,1.46875 -0.8524,1.00738 -1.12696,2.29166 -1.12696,3.63672 l -0.125,14.10937 a 1.8559711,1.8559711 0 0 0 0,0.0156 c 0,1.14498 0.50054,2.33707 1.35156,3.11718 0.80285,0.73594 1.91195,1.17579 3.00391,1.17579 1.03741,0 2.13029,-0.42328 2.875,-1.16797 0.80078,-0.8008 1.12487,-1.90822 1.18164,-3.00782 1.82183,1.39891 3.78287,2.60262 6.01758,3.38477 a 1.8559711,1.8559711 0 0 0 0.008,0.002 c 3.5845,1.23908 7.44204,1.85157 11.54297,1.85157 6.44082,0 11.74169,-1.20104 15.80859,-3.78907 a 1.8559711,1.8559711 0 0 0 0.004,-0.004 c 4.17319,-2.67272 6.41797,-6.96678 6.41797,-12.125 0,-4.60703 -1.22318,-8.38643 -3.89062,-10.90625 -2.49698,-2.39719 -5.95533,-3.95129 -10.23243,-4.78907 h 0.008 l -16.14454,-3.24023 c -0.004,-9.2e-4 -0.006,-0.003 -0.01,-0.004 -2.76592,-0.62473 -4.51913,-1.50581 -5.25977,-2.24023 -0.81715,-0.8526 -1.2207,-1.85096 -1.2207,-3.38281 0,-2.20394 0.68941,-3.44577 2.42773,-4.51172 1.73833,-1.06596 4.7398,-1.75781 8.9668,-1.75781 4.36574,0 7.95933,0.62644 10.79102,1.79687 a 1.8559711,1.8559711 0 0 0 0.008,0.004 c 2.77854,1.13334 4.42856,2.69623 5.35937,4.7832 0.0577,1.66646 0.14013,3.06117 0.53711,4.13867 0.26972,0.73206 0.8155,1.43116 1.51368,1.84571 0.69817,0.41454 1.47261,0.55664 2.22851,0.55664 1.1117,0 2.26398,-0.24445 3.125,-1.10547 0.78812,-0.78812 1.11023,-1.8196 1.2207,-2.86914 a 1.8559711,1.8559711 0 0 0 0.01,-0.17578 l 0.125,-12.5625 a 1.8559711,1.8559711 0 0 0 0,-0.0176 c 0,-1.28109 -0.3722,-2.56534 -1.24219,-3.50782 -0.79626,-0.86261 -1.99441,-1.41015 -3.17578,-1.41015 -1.20501,0 -2.38759,0.58162 -3.20312,1.44531 -0.56106,0.57035 -0.87229,1.30008 -1.0625,2.07227 -1.32616,-0.78962 -2.89228,-1.46185 -4.71094,-2.04688 -0.001,-4e-4 -0.003,4e-4 -0.004,0 -3.56298,-1.18723 -7.26634,-1.7832 -11.08203,-1.7832 z"
     style="font-style:normal;font-weight:normal;font-size:40px;line-height:1.25;font-family:sans-serif;letter-spacing:0px;word-spacing:0px;fill:#333333;fill-opacity:1;stroke:none;stroke-width:1px;stroke-linecap:butt;stroke-linejoin:miter;stroke-opacity:1" />
  <path
     id="path1017"
     d="M 905.19531 171.42773 C 901.24653 171.42773 897.5299 172.21197 894.11523 173.7832 C 892.04567 174.70993 890.21812 175.87584 888.51172 177.15625 L 888.48633 176.57812 A 1.8559711 1.8559711 0 0 0 888.48633 176.5625 C 888.42963 175.45772 888.09467 174.33881 887.27344 173.51758 C 886.4522 172.69635 885.29216 172.36523 884.19531 172.36523 C 883.7194 172.36523 883.41644 172.42093 882.80859 172.50781 A 1.8559711 1.8559711 0 0 0 882.70508 172.52734 L 872.45508 174.58984 A 1.8559711 1.8559711 0 0 0 872.39453 174.60156 C 871.36247 174.84439 870.36761 175.44171 869.74805 176.34375 C 869.20541 177.10102 868.90234 178.04362 868.90234 178.9707 C 868.90234 180.06265 869.35638 181.19425 870.13281 181.9707 C 870.92915 182.76703 872.08671 183.20117 873.19531 183.20117 C 873.54844 183.20117 873.89785 183.17322 874.24609 183.10352 C 874.44355 183.06402 874.62338 183.02282 874.79883 182.98047 L 879.33984 182.09766 L 879.33984 240.24023 L 875.57031 240.24023 C 874.38795 240.24023 873.1461 240.69946 872.32812 241.5918 A 1.8559711 1.8559711 0 0 0 872.26953 241.6582 C 871.59317 242.46982 871.21484 243.54241 871.21484 244.5957 C 871.21484 245.69063 871.63322 246.8077 872.36914 247.62695 C 873.18698 248.57514 874.47096 249.07617 875.69531 249.07617 L 900.44531 249.07617 C 901.72752 249.07617 903.05021 248.623 903.93359 247.66602 C 904.70705 246.8281 905.17578 245.67818 905.17578 244.5332 C 905.17578 243.44124 904.73594 242.33215 904 241.5293 A 1.8559711 1.8559711 0 0 0 903.94531 241.4707 C 903.08932 240.61468 901.86886 240.24023 900.69531 240.24023 L 889.05078 240.24023 L 889.05078 222.21875 C 890.76905 223.39369 892.52629 224.43441 894.36719 225.1875 A 1.8559711 1.8559711 0 0 0 894.37695 225.19141 C 897.43879 226.42528 900.9701 227.01367 904.94531 227.01367 C 910.02207 227.01367 914.56721 225.82706 918.42773 223.41992 A 1.8559711 1.8559711 0 0 0 918.43164 223.41797 C 922.29947 220.98933 925.30563 217.61288 927.36133 213.41211 A 1.8559711 1.8559711 0 0 0 927.36523 213.4043 C 929.41436 209.1724 930.42578 204.41815 930.42578 199.2207 C 930.42578 193.94897 929.44055 189.1788 927.43164 184.98242 C 925.4188 180.7778 922.45012 177.41264 918.61523 175.02148 C 914.79356 172.61233 910.2688 171.42773 905.19531 171.42773 z M 905.07031 180.26367 C 908.51101 180.26367 911.2698 181.09841 913.55469 182.73047 C 915.89853 184.40464 917.64423 186.61794 918.85938 189.50391 A 1.8559711 1.8559711 0 0 0 918.86328 189.51172 C 920.08912 192.3848 920.71484 195.60252 920.71484 199.2207 C 920.71484 202.78803 920.07191 206.00145 918.80469 208.91992 C 917.55368 211.80101 915.75334 214.01495 913.32617 215.69531 C 910.95474 217.33707 908.10107 218.17773 904.57031 218.17773 C 897.95038 218.17773 892.9679 215.88238 889.05078 211.22266 L 889.05078 188.15625 C 890.79713 185.78988 892.89231 183.88567 895.45508 182.47656 L 895.45898 182.47461 C 895.45998 182.47391 895.46189 182.47366 895.46289 182.47266 C 898.15756 181.01483 901.32507 180.26367 905.07031 180.26367 z "
     style="font-style:normal;font-weight:normal;font-size:40px;line-height:1.25;font-family:sans-serif;letter-spacing:0px;word-spacing:0px;fill:#333333;fill-opacity:1;stroke:none;stroke-width:1px;stroke-linecap:butt;stroke-linejoin:miter;stroke-opacity:1" />
  <path
     id="path1015"
     d="M 977.63281 171.42773 C 973.21907 171.42773 969.24366 172.01079 965.7207 173.21484 C 962.21034 174.41458 959.35567 176.12425 957.26562 178.4043 C 955.17204 180.68822 954.02734 183.45456 954.02734 186.4082 C 954.02734 188.03149 954.42589 189.55808 955.33594 190.77148 A 1.8559711 1.8559711 0 0 0 955.37109 190.81836 C 956.37942 192.07877 957.99786 192.76367 959.63281 192.76367 C 960.69593 192.76367 961.78236 192.41498 962.61523 191.73828 C 963.4481 191.06157 964.00655 190.13498 964.37891 189.09766 C 964.97314 187.4423 965.29114 185.23489 965.48828 182.59961 C 967.23842 181.87747 968.97445 181.24402 970.66992 180.91797 A 1.8559711 1.8559711 0 0 0 970.69727 180.91211 C 972.76234 180.48351 975.05332 180.26367 977.57031 180.26367 C 981.89455 180.26367 984.43577 181.38204 985.88086 183.37305 A 1.8559711 1.8559711 0 0 0 985.89258 183.38867 C 987.413 185.43793 988.27887 188.64679 988.34961 192.99219 L 985.56836 193.18164 C 978.73841 193.6426 973.27324 194.22806 969.125 194.95508 A 1.8559711 1.8559711 0 0 0 969.12109 194.95508 C 964.86694 195.70842 961.17518 197.28821 958.1582 199.71094 C 954.94614 202.29032 953.33984 206.24479 953.33984 210.9707 C 953.33984 215.64072 954.84085 219.66176 957.83203 222.60547 A 1.8559711 1.8559711 0 0 0 957.8418 222.61719 C 960.86162 225.54114 965.06673 226.95117 970.07031 226.95117 C 974.62152 226.95117 978.8773 226.13739 982.7832 224.49609 C 985.55443 223.344 987.78374 221.88594 989.74609 220.27148 C 990.38229 222.03864 991.20813 223.58114 992.55469 224.54297 A 1.8559711 1.8559711 0 0 0 992.58398 224.56445 C 994.38904 225.8022 996.59171 226.38867 999.00781 226.38867 C 1001.144 226.38867 1003.2188 225.92987 1005.1621 225.0293 A 1.8559711 1.8559711 0 0 0 1005.1797 225.02148 C 1007.1213 224.0969 1008.8495 222.83387 1010.3301 221.26758 C 1011.0669 220.52314 1011.4883 219.4395 1011.4883 218.4082 C 1011.4883 217.31637 1011.0624 216.22483 1010.3613 215.39648 C 1009.6343 214.53719 1008.4814 213.92773 1007.3203 213.92773 C 1006.2077 213.92773 1005.1576 214.51095 1004.4531 215.2793 L 1004.4707 215.25977 C 1003.9412 215.82052 1003.1423 216.42301 1002.0742 217.01562 C 1001.076 217.52878 1000.2293 217.74023 999.50781 217.74023 C 998.84721 217.74023 998.57736 217.60176 998.39062 217.45117 C 998.40162 217.45417 998.11328 217.03066 998.11328 215.8457 L 998.11328 196.3457 C 998.11328 191.13395 997.56784 186.75003 996.40039 183.1543 C 995.20797 179.43945 993.00381 176.4455 989.90625 174.42383 L 989.90234 174.42188 C 986.77442 172.35399 982.65387 171.42773 977.63281 171.42773 z M 988.40234 201.08008 L 988.40234 211.42969 C 986.42579 213.3756 983.97697 215.00809 980.88281 216.24609 C 980.88281 216.24609 980.88086 216.24805 980.88086 216.24805 C 977.59221 217.53841 974.23265 218.17773 970.75781 218.17773 C 968.20113 218.17773 966.37517 217.57148 965.01367 216.47852 C 963.81902 215.44981 963.11328 213.79175 963.11328 210.9707 C 963.11328 208.47821 963.83298 206.98367 965.37109 205.83008 C 967.06262 204.56144 969.46415 203.59717 972.63672 203.04883 A 1.8559711 1.8559711 0 0 0 972.6543 203.04688 C 975.97044 202.44027 981.0677 201.79498 987.875 201.13086 L 988.40234 201.08008 z "
     style="font-style:normal;font-weight:normal;font-size:40px;line-height:1.25;font-family:sans-serif;letter-spacing:0px;word-spacing:0px;fill:#333333;fill-opacity:1;stroke:none;stroke-width:1px;stroke-linecap:butt;stroke-linejoin:miter;stroke-opacity:1" />
  <path
     id="path1013"
     d="m 1056.5701,171.42779 c -5.4508,0 -10.4922,1.07541 -15.0468,3.24219 -4.5702,2.17416 -8.2764,5.35507 -11,9.46289 a 1.8559711,1.8559711 0 0 0 -0.01,0.0117 c -2.7084,4.15287 -4.0507,9.04768 -4.0507,14.51367 0,5.72277 1.2335,10.80571 3.7519,15.12304 a 1.8559711,1.8559711 0 0 0 0,0.008 c 2.5099,4.25776 6.1038,7.57142 10.6446,9.84179 4.5385,2.2693 9.7387,3.38282 15.5175,3.38282 3.7746,0 7.7248,-0.71088 11.8418,-2.09766 a 1.8559711,1.8559711 0 0 0 0.012,-0.002 c 4.2133,-1.4483 7.588,-3.46749 10.0176,-6.13086 a 1.8559711,1.8559711 0 0 0 0.01,-0.008 c 0.9764,-1.08482 1.6016,-2.4444 1.6016,-3.86718 0,-1.16952 -0.2919,-2.37401 -1.168,-3.25 -0.7448,-0.74492 -1.8376,-1.16797 -2.875,-1.16797 -1.4124,0 -2.8082,0.53862 -3.834,1.50391 -2.4502,2.24979 -4.8483,3.81898 -7.1718,4.75585 -2.2881,0.92261 -5.2664,1.42774 -8.9317,1.42774 -6.2404,0 -10.9528,-1.65334 -14.4863,-4.88086 -3.4339,-3.21536 -5.2207,-7.94075 -5.2207,-14.63867 0,-3.93885 0.8465,-7.17514 2.4785,-9.84571 a 1.8559711,1.8559711 0 0 0 0.01,-0.008 c 1.641,-2.72259 3.964,-4.78654 7.1289,-6.27539 v -0.002 c 3.2033,-1.48648 7.0913,-2.26367 11.7148,-2.26367 2.1355,0 4.1557,0.19793 6.0664,0.58789 a 1.8559711,1.8559711 0 0 0 0.01,0.002 c 1.6202,0.32404 3.2605,0.97049 4.9101,1.7207 l 0.1719,1.41797 c 10e-5,8.7e-4 -10e-5,10e-4 0,0.002 v 0.0137 c 0.4213,3.70233 0.847,6.34097 1.375,8.11718 a 1.8559711,1.8559711 0 0 0 0,0.0137 c 0.2958,0.9679 0.7538,1.85008 1.502,2.52343 0.7482,0.67336 1.7853,1.03907 2.7734,1.03907 1.6692,0 3.3226,-0.80612 4.2637,-2.16993 0.9356,-1.3015 1.3418,-2.92316 1.3418,-4.68554 0,-5.82097 -2.278,-10.54264 -6.6621,-13.3711 -4.2773,-2.75954 -9.8751,-4.04687 -16.6934,-4.04687 z"
     style="font-style:normal;font-weight:normal;font-size:40px;line-height:1.25;font-family:sans-serif;letter-spacing:0px;word-spacing:0px;fill:#333333;fill-opacity:1;stroke:none;stroke-width:1px;stroke-linecap:butt;stroke-linejoin:miter;stroke-opacity:1" />
  <path
     id="path1011"
     d="M 1135.248 171.42773 C 1129.9201 171.42906 1124.9794 172.50737 1120.5098 174.67578 A 1.8559711 1.8559711 0 0 0 1120.5 174.67969 C 1116.053 176.85875 1112.4371 180.04231 1109.7617 184.14453 A 1.8559711 1.8559711 0 0 0 1109.752 184.15625 C 1107.0892 188.3085 1105.7715 193.19719 1105.7715 198.6582 C 1105.7715 204.38569 1107.0295 209.47434 1109.5938 213.79297 A 1.8559711 1.8559711 0 0 0 1109.5938 213.80078 C 1112.1446 218.05224 1115.7544 221.36157 1120.293 223.63086 A 1.8559711 1.8559711 0 0 0 1120.3027 223.63477 C 1124.8812 225.90177 1130.1208 227.01367 1135.9395 227.01367 C 1139.7214 227.01367 1143.714 226.28176 1147.9121 224.85352 L 1147.9023 224.85352 C 1152.1925 223.40888 1155.6064 221.42301 1158.0449 218.79688 A 1.8559711 1.8559711 0 0 0 1158.0645 218.77539 C 1159.0409 217.69057 1159.666 216.33098 1159.666 214.9082 C 1159.666 213.78028 1159.2705 212.63566 1158.5391 211.77148 C 1157.7584 210.84868 1156.5073 210.30273 1155.3105 210.30273 C 1153.9514 210.30273 1152.679 210.8877 1151.5801 211.77734 A 1.8559711 1.8559711 0 0 0 1151.4727 211.87305 C 1149.2719 213.95809 1146.7856 215.52592 1143.9707 216.60742 C 1141.169 217.65803 1138.3378 218.17773 1135.4355 218.17773 C 1129.3483 218.17773 1124.6689 216.59649 1121.0859 213.50391 C 1117.948 210.79538 1116.1862 206.9357 1115.6816 201.74805 L 1152.9355 201.45117 C 1154.8181 201.45117 1156.6206 200.70285 1157.832 199.31836 A 1.8559711 1.8559711 0 0 0 1157.8574 199.28906 C 1159.0303 197.89281 1159.6035 196.08338 1159.6035 194.1582 C 1159.6035 189.43148 1158.5529 185.26477 1156.3867 181.80469 C 1154.2885 178.38721 1151.3108 175.76513 1147.5996 174.04297 C 1143.9511 172.28938 1139.8131 171.42898 1135.2578 171.42773 L 1135.248 171.42773 z M 1135.3828 180.26367 L 1135.3848 180.26367 C 1141.5703 180.26401 1145.2256 181.79014 1147.0469 184.40625 C 1148.7823 186.89886 1149.7441 189.87162 1150.2266 193.19141 L 1116.1289 193.41211 C 1117.0564 189.55706 1118.8605 186.55987 1121.7109 184.30859 L 1121.7207 184.30469 C 1121.7207 184.30469 1121.7207 184.30273 1121.7207 184.30273 C 1125.1315 181.64466 1129.6057 180.26399 1135.3828 180.26367 z "
     style="font-style:normal;font-weight:normal;font-size:40px;line-height:1.25;font-family:sans-serif;letter-spacing:0px;word-spacing:0px;fill:#333333;fill-opacity:1;stroke:none;stroke-width:1px;stroke-linecap:butt;stroke-linejoin:miter;stroke-opacity:1" />
</svg>
