<?xml version="1.0" encoding="UTF-8" standalone="no"?>
<svg
   xmlns:dc="http://purl.org/dc/elements/1.1/"
   xmlns:cc="http://creativecommons.org/ns#"
   xmlns:rdf="http://www.w3.org/1999/02/22-rdf-syntax-ns#"
   xmlns:svg="http://www.w3.org/2000/svg"
   xmlns="http://www.w3.org/2000/svg"
   xmlns:xlink="http://www.w3.org/1999/xlink"
   height="1.4263101in"
   width="5.5316019in"
   id="svg2"
   version="1.0">
  <metadata
     id="metadata371">
    <rdf:RDF>
      <cc:Work
         rdf:about="">
        <dc:format>image/svg+xml</dc:format>
        <dc:type
           rdf:resource="http://purl.org/dc/dcmitype/StillImage" />
        <dc:title></dc:title>
      </cc:Work>
    </rdf:RDF>
  </metadata>
  <defs
     id="defs4">
    <linearGradient
       id="linearGradient855">
      <stop
         id="stop851"
         offset="0"
         style="stop-color:#000000;stop-opacity:1;" />
      <stop
         id="stop853"
         offset="1"
         style="stop-color:#000000;stop-opacity:0;" />
    </linearGradient>
    <linearGradient
       id="linearGradient2795">
      <stop
         id="stop2797"
         offset="0"
         style="stop-color:#b8b8b8;stop-opacity:0.49803922;" />
      <stop
         id="stop2799"
         offset="1"
         style="stop-color:#7f7f7f;stop-opacity:0;" />
    </linearGradient>
    <linearGradient
       id="linearGradient4671">
      <stop
         id="stop4673"
         offset="0"
         style="stop-color:#ffd43b;stop-opacity:1;" />
      <stop
         id="stop4675"
         offset="1"
         style="stop-color:#ffe873;stop-opacity:1" />
    </linearGradient>
    <linearGradient
       id="linearGradient4689">
      <stop
         id="stop4691"
         offset="0"
         style="stop-color:#5a9fd4;stop-opacity:1;" />
      <stop
         id="stop4693"
         offset="1"
         style="stop-color:#306998;stop-opacity:1;" />
    </linearGradient>
    <linearGradient
       y2="137.27299"
       x2="112.03144"
       y1="192.35176"
       x1="150.96111"
       gradientTransform="matrix(0.562541,0,0,0.567972,-14.99112,-9.4447076)"
       gradientUnits="userSpaceOnUse"
       id="linearGradient1475"
       xlink:href="#linearGradient4671" />
    <linearGradient
       y2="114.39767"
       x2="135.66525"
       y1="20.603781"
       x1="26.648937"
       gradientTransform="matrix(0.562541,0,0,0.567972,-14.99112,-9.4447076)"
       gradientUnits="userSpaceOnUse"
       id="linearGradient1478"
       xlink:href="#linearGradient4689" />
    <radialGradient
       gradientUnits="userSpaceOnUse"
       gradientTransform="matrix(1,0,0,0.19390822,0,104.75844)"
       r="35.930977"
       fy="129.95845"
       fx="55.816761"
       cy="129.95845"
       cx="55.816761"
       id="radialGradient857"
       xlink:href="#linearGradient855" />
  </defs>
  <rect
     y="91.321152"
     x="61.446835"
     height="15.725731"
     width="14.793836"
     id="rect859-3"
     style="opacity:1;fill:#ffffff;fill-opacity:1" />
  <rect
     y="7.7418013"
     x="32.383358"
     height="15.725731"
     width="14.793836"
     id="rect859"
     style="opacity:1;fill:#ffffff;fill-opacity:1" />
  <path
     id="path1948"
     d="M 54.918785,2.2585823 C 50.335132,2.2798803 45.957846,2.6708 42.106285,3.3523323 30.760069,5.3568361 28.700036,9.5524344 28.700035,17.289832 v 10.21875 h 26.8125 v 3.40625 h -26.8125 -10.0625 c -7.792459,0 -14.6157588,4.683717 -16.7499998,13.59375 -2.46182,10.212966 -2.5710151,16.586023 0,27.25 1.9059283,7.937852 6.4575432,13.593748 14.2499998,13.59375 h 9.21875 v -12.25 c 0,-8.849902 7.657144,-16.656248 16.75,-16.65625 h 26.78125 c 7.454951,0 13.406253,-6.138164 13.40625,-13.625 v -25.53125 c 0,-7.266339 -6.12998,-12.7247771 -13.40625,-13.9374997 C 64.281548,2.585607 59.502438,2.237284 54.918785,2.2585823 Z m -14.5,8.2187497 c 2.769547,0 5.03125,2.298646 5.03125,5.125 -2e-6,2.816336 -2.261703,5.09375 -5.03125,5.09375 -2.779476,-1e-6 -5.03125,-2.277415 -5.03125,-5.09375 -10e-7,-2.826353 2.251774,-5.125 5.03125,-5.125 z"
     style="fill:url(#linearGradient1478);fill-opacity:1" />
  <path
     id="path1950"
     d="m 85.637535,30.914832 v 11.90625 c 0,9.230755 -7.825895,16.999999 -16.75,17 h -26.78125 c -7.335833,0 -13.406249,6.278483 -13.40625,13.625 v 25.531247 c 0,7.266341 6.318588,11.540321 13.40625,13.625001 8.487331,2.49561 16.626237,2.94663 26.78125,0 6.750155,-1.95439 13.406253,-5.88761 13.40625,-13.625001 V 88.758582 h -26.78125 v -3.40625 h 26.78125 13.406254 c 7.792461,0 10.696251,-5.435408 13.406241,-13.59375 2.79933,-8.398886 2.68022,-16.475776 0,-27.25 -1.92578,-7.757441 -5.60387,-13.59375 -13.406241,-13.59375 z m -15.0625,64.65625 c 2.779478,3e-6 5.03125,2.277417 5.03125,5.093748 -2e-6,2.82635 -2.251775,5.125 -5.03125,5.125 -2.76955,0 -5.03125,-2.29865 -5.03125,-5.125 2e-6,-2.816331 2.261697,-5.093748 5.03125,-5.093748 z"
     style="fill:url(#linearGradient1475);fill-opacity:1" />
  <ellipse
     ry="6.9673119"
     rx="35.930977"
     cy="129.95845"
     cx="55.816761"
     id="path1894"
     style="opacity:0.303;fill:url(#radialGradient857);fill-opacity:1;fill-rule:nonzero;stroke:none;stroke-width:15.41738224;stroke-miterlimit:4;stroke-dasharray:none;stroke-opacity:1" />
  <text
     id="text3841"
     y="84.360001"
     x="134.71004"
     style="font-style:normal;font-weight:normal;font-size:40px;line-height:1.25;font-family:sans-serif;letter-spacing:0px;word-spacing:0px;fill:#646464;fill-opacity:1;stroke:none"
     xml:space="preserve"><tspan
       dx="0"
       style="font-style:normal;font-variant:normal;font-weight:normal;font-stretch:normal;font-size:120px;font-family:Flux;-inkscape-font-specification:Flux;letter-spacing:-3.13999915px;fill:#646464"
       y="84.360001"
       x="134.71004"
       id="tspan3839"><tspan
         id="tspan833"
         style="fill:#cfcfcf;fill-opacity:1">fresno</tspan><tspan
         id="tspan4859"
         style="fill:#f0f0f0;fill-opacity:1">.py</tspan></tspan></text>
</svg>
